<?xml version="1.0" standalone="no"?>
<!DOCTYPE svg PUBLIC "-//W3C//DTD SVG 20010904//EN"
 "http://www.w3.org/TR/2001/REC-SVG-20010904/DTD/svg10.dtd">
<svg version="1.0" xmlns="http://www.w3.org/2000/svg"
 width="300.000000pt" height="300.000000pt" viewBox="0 0 300.000000 300.000000"
 preserveAspectRatio="xMidYMid meet">
<metadata>
Created by potrace 1.15, written by Peter Selinger 2001-2017
</metadata>
<g transform="translate(0.000000,300.000000) scale(0.100000,-0.100000)"
fill="#000000" stroke="none">
<path d="M2252 2950 c-249 -67 -398 -255 -377 -476 l7 -72 -59 -39 c-59 -40
-326 -200 -661 -397 l-183 -108 -112 56 c-135 67 -210 82 -324 66 -105 -14
-193 -59 -269 -134 -189 -190 -190 -499 -3 -687 168 -169 438 -188 654 -46
l50 33 450 -252 c248 -139 454 -254 458 -256 5 -2 3 -32 -3 -67 -22 -125 28
-281 126 -390 116 -129 343 -180 523 -116 103 36 213 137 267 244 28 54 29 60
29 211 0 151 -1 156 -29 212 -134 265 -441 346 -727 190 l-65 -35 -58 26 c-60
28 -332 181 -646 365 l-185 108 2 35 c7 94 7 156 1 174 -6 17 10 29 129 95 75
41 218 121 317 178 223 128 441 242 461 242 9 0 39 -13 68 -30 65 -36 148 -66
229 -80 188 -34 416 88 501 268 31 66 32 70 32 212 0 145 0 146 -33 212 -106
208 -349 318 -570 258z m216 -254 c121 -63 138 -257 30 -352 -127 -111 -331
-32 -354 138 -24 171 165 296 324 214z m-1793 -987 c25 -7 58 -29 86 -58 111
-110 84 -271 -56 -344 -83 -43 -215 -18 -263 50 -61 85 -54 217 14 293 55 60
135 82 219 59z m1787 -1025 c36 -19 86 -82 98 -124 25 -89 5 -165 -59 -223
-143 -129 -361 -26 -361 170 0 77 81 173 162 194 41 10 125 1 160 -17z"/>
</g>
</svg>
