<?xml version="1.0" standalone="no"?>
<!DOCTYPE svg PUBLIC "-//W3C//DTD SVG 20010904//EN"
 "http://www.w3.org/TR/2001/REC-SVG-20010904/DTD/svg10.dtd">
<svg version="1.0" xmlns="http://www.w3.org/2000/svg"
 width="533.000000pt" height="533.000000pt" viewBox="0 0 533.000000 533.000000"
 preserveAspectRatio="xMidYMid meet">
<metadata>
Created by potrace 1.15, written by Peter Selinger 2001-2017
</metadata>
<g transform="translate(0.000000,533.000000) scale(0.100000,-0.100000)"
fill="#000000" stroke="none">
<path d="M1049 4254 l-681 -681 7 -934 7 -934 676 -678 677 -679 565 7 c311 3
736 10 945 16 l380 10 165 167 c91 92 338 347 550 567 212 220 432 449 489
508 l104 108 -6 928 -7 929 -667 666 -668 666 -535 1 c-294 1 -712 4 -928 8
l-392 6 -681 -681z m118 -785 c235 -31 362 -192 363 -457 l0 -83 -137 3 -138
3 -8 75 c-14 136 -72 210 -164 210 -111 0 -176 -80 -152 -190 14 -66 54 -109
200 -214 349 -252 415 -329 437 -508 12 -94 0 -216 -29 -292 -22 -61 -89 -141
-154 -186 -79 -55 -148 -70 -312 -70 -146 0 -147 0 -212 32 -174 88 -228 190
-246 471 l-7 107 150 0 150 0 6 -67 c17 -199 30 -237 89 -273 136 -83 283 26
263 194 -11 98 -54 144 -297 321 -174 127 -270 223 -311 310 -29 62 -33 82
-36 172 -3 83 0 115 16 170 47 155 134 229 310 267 83 18 120 19 219 5z m2125
-18 c153 -49 229 -149 275 -363 16 -73 18 -134 17 -493 0 -448 -5 -497 -54
-600 -52 -109 -154 -187 -278 -214 -68 -14 -246 -14 -314 0 -167 35 -275 149
-324 340 -20 81 -31 669 -16 859 22 266 113 418 281 466 133 39 299 41 413 5z
m-735 -78 c-4 -38 -7 -92 -7 -120 l0 -53 -127 0 c-71 0 -146 -3 -167 -7 l-39
-6 6 -694 5 -693 -147 0 -148 0 -6 308 c-4 169 -7 393 -7 498 0 105 -3 279 -7
387 l-6 197 -152 0 c-124 0 -155 3 -165 15 -8 10 -13 52 -14 118 l-1 102 55 6
c30 3 253 6 494 7 l439 2 -6 -67z m1927 38 c138 -68 206 -217 206 -447 0 -105
-20 -198 -57 -267 -36 -65 -121 -141 -186 -165 -62 -24 -200 -42 -314 -42
l-83 0 0 -335 0 -335 -144 0 -144 0 -6 568 c-3 312 -9 676 -12 810 l-6 243
348 -3 c346 -3 349 -3 398 -27z"/>
<path d="M3000 3202 c-19 -9 -48 -37 -65 -60 l-30 -44 -3 -430 c-3 -469 0
-510 48 -577 40 -54 62 -64 147 -65 80 -1 109 14 150 74 41 59 45 95 50 403 9
485 -21 647 -127 702 -39 20 -127 19 -170 -3z"/>
<path d="M4034 3124 c3 -43 8 -150 12 -237 l6 -159 82 7 c212 17 256 60 256
255 0 76 -4 99 -22 131 -32 58 -71 71 -217 77 l-123 5 6 -79z"/>
</g>
</svg>
