<?xml version="1.0" standalone="no"?>
<!DOCTYPE svg PUBLIC "-//W3C//DTD SVG 20010904//EN"
 "http://www.w3.org/TR/2001/REC-SVG-20010904/DTD/svg10.dtd">
<svg version="1.0" xmlns="http://www.w3.org/2000/svg"
 width="1600.000000pt" height="1599.000000pt" viewBox="0 0 1600.000000 1599.000000"
 preserveAspectRatio="xMidYMid meet">
<metadata>
Created by potrace 1.15, written by Peter Selinger 2001-2017
</metadata>
<g transform="translate(0.000000,1599.000000) scale(0.100000,-0.100000)"
fill="#000000" stroke="none">
<path d="M9275 13666 c-488 -60 -868 -175 -1270 -385 -359 -187 -639 -395
-921 -682 -523 -535 -859 -1204 -968 -1929 -29 -191 -46 -363 -46 -468 l0
-102 278 2 277 3 7 85 c22 255 29 326 48 430 134 770 534 1422 1165 1902 126
95 256 175 430 263 274 139 418 192 720 261 257 59 348 66 705 61 173 -3 335
-10 360 -15 25 -6 79 -16 120 -22 102 -17 314 -72 435 -113 492 -168 892 -437
1293 -871 54 -59 101 -101 111 -100 13 0 17 -5 14 -17 -3 -11 24 -60 70 -126
242 -351 409 -738 492 -1147 39 -189 48 -327 42 -670 -5 -336 -12 -399 -76
-648 -69 -265 -89 -315 -374 -938 -102 -223 -228 -499 -280 -615 -106 -234
-362 -794 -396 -866 -12 -26 -21 -50 -19 -55 1 -5 -22 -56 -51 -113 -53 -105
-312 -667 -816 -1776 -483 -1061 -514 -1127 -566 -1220 -125 -227 -375 -490
-604 -636 -419 -268 -945 -354 -1427 -233 -261 65 -488 177 -698 344 -96 76
-253 235 -321 325 -220 288 -345 629 -374 1018 l-7 87 -279 0 -279 0 0 -68 c0
-92 35 -367 60 -472 79 -330 224 -634 439 -920 87 -115 301 -330 427 -428 281
-218 604 -370 945 -446 205 -45 270 -51 544 -51 225 1 277 4 384 23 68 13 136
29 152 37 15 8 41 15 58 15 53 0 345 111 506 193 299 152 622 432 827 718 137
191 180 278 640 1289 155 338 319 698 365 800 47 102 127 277 178 390 100 222
348 765 532 1165 64 138 203 444 310 680 107 237 239 527 293 645 249 544 312
703 370 934 101 404 130 751 100 1218 -31 481 -216 1066 -473 1493 -94 156
-217 333 -272 391 -27 29 -59 70 -70 91 -31 58 -356 377 -505 497 -304 243
-636 434 -970 558 -256 95 -546 168 -810 203 -163 22 -679 29 -825 11z"/>
<path d="M9276 12479 c-383 -67 -706 -195 -971 -383 -157 -111 -224 -166 -324
-261 -301 -289 -527 -664 -644 -1070 -67 -229 -87 -386 -87 -692 l0 -243 164
0 c374 0 647 -58 931 -200 219 -109 434 -282 613 -494 42 -50 80 -92 84 -94 5
-2 8 -9 8 -16 0 -7 14 -34 31 -62 93 -145 180 -358 232 -562 l32 -127 0 -275
c0 -308 -5 -348 -76 -562 -43 -135 -95 -250 -177 -393 -66 -117 -101 -162
-237 -303 -335 -347 -707 -526 -1195 -572 -63 -6 -116 -13 -118 -15 -3 -2 -7
-129 -10 -281 l-5 -277 124 7 c591 33 1135 274 1558 689 362 355 590 792 681
1308 32 176 39 496 15 678 -53 417 -215 824 -459 1151 -92 125 -335 367 -463
464 -295 221 -597 363 -933 439 -63 15 -136 29 -162 32 -48 6 -48 7 -48 43 0
98 70 322 155 497 218 449 606 788 1085 949 186 62 230 68 515 73 312 5 400
-5 598 -71 304 -102 494 -217 726 -441 270 -261 426 -538 518 -924 21 -90 26
-137 30 -313 10 -421 -30 -570 -332 -1213 -26 -55 -134 -291 -240 -525 -241
-531 -685 -1505 -855 -1875 -353 -770 -520 -1140 -526 -1173 -6 -29 -5 -29
227 -136 128 -59 242 -108 252 -109 22 -2 24 0 75 118 22 50 124 275 227 500
103 226 268 586 365 800 98 215 227 498 288 630 60 132 194 425 297 650 103
226 248 543 322 705 315 689 355 787 406 1005 49 206 62 323 61 555 0 247 -15
373 -70 593 -45 179 -96 311 -198 512 -86 168 -154 277 -187 298 -10 6 -19 16
-19 21 0 45 -306 359 -470 483 -352 265 -795 441 -1189 472 -216 17 -497 13
-625 -10z"/>
<path d="M4070 11253 c-175 -183 -331 -378 -487 -609 -369 -547 -614 -1154
-733 -1810 -33 -181 -36 -234 -18 -252 9 -9 8 -12 -4 -12 -29 0 -33 -76 -33
-590 0 -549 2 -570 80 -948 179 -860 599 -1672 1182 -2280 l108 -113 199 199
199 200 -103 108 c-474 502 -813 1131 -994 1840 -73 291 -95 442 -121 834 -13
195 -19 240 -35 267 -19 32 -19 32 0 21 10 -7 22 -9 25 -6 4 3 13 96 20 206
32 447 111 794 278 1217 196 497 469 932 830 1324 75 81 85 96 76 113 -6 11
-93 103 -193 205 l-181 185 -95 -99z"/>
<path d="M4919 10439 c-142 -146 -306 -359 -431 -559 -718 -1152 -713 -2649
12 -3788 101 -159 195 -284 329 -441 135 -157 154 -175 177 -163 11 6 102 94
204 196 l184 185 -65 68 c-113 119 -254 302 -373 487 -144 224 -290 582 -366
901 -52 215 -63 337 -64 685 0 285 2 327 22 443 29 159 70 328 116 475 20 63
36 116 36 119 0 3 -8 2 -17 -2 -12 -4 -9 3 9 22 15 16 54 88 87 160 134 297
331 594 547 822 l67 72 -184 185 c-101 102 -192 190 -202 195 -15 9 -30 -1
-88 -62z"/>
<path d="M5760 9618 c-309 -344 -501 -722 -590 -1160 -26 -125 -44 -424 -37
-603 9 -227 65 -498 144 -699 111 -286 293 -582 485 -790 l64 -69 194 197
c107 109 196 201 197 204 2 4 -31 44 -71 90 -219 245 -378 586 -437 937 -15
93 -15 439 0 540 51 334 195 648 419 918 45 54 82 103 82 109 0 6 -87 98 -193
205 l-192 194 -65 -73z"/>
</g>
</svg>
